<svg height="512pt" viewBox="-21 0 512 512" width="512pt" xmlns="http://www.w3.org/2000/svg"><path d="m82.519531 26.347656h30v119.417969h-30zm0 0" fill="#2f5994"/><path d="m82.519531 0h133.207031v92.332031h-133.207031zm0 0" fill="#ff7815"/><path d="m354.664062 153.90625-28.394531-9.675781 41.101563-120.667969h73.871094v30h-52.394532zm0 0" fill="#183158"/><path d="m469.820312 297.53125c0 57.570312-24.621093 111.597656-69.332031 152.160156-44.296875 40.179688-103.109375 62.308594-165.578125 62.308594s-121.28125-22.128906-165.582031-62.308594c-44.707031-40.5625-69.328125-94.589844-69.328125-152.160156 0-26.929688 5.570312-53.339844 16.089844-77.941406 13.320312-31.167969 34.582031-59.417969 62.488281-82.148438l4.140625-3.371094h304.382812l4.136719 3.371094c27.910157 22.730469 49.171875 50.980469 62.492188 82.148438 10.519531 24.601562 16.089843 51.011718 16.089843 77.941406zm0 0" fill="#60d84d"/><path d="m469.820312 297.53125c0 57.570312-24.621093 111.597656-69.332031 152.160156-44.296875 40.179688-103.109375 62.308594-165.578125 62.308594v-377.929688h152.191406l4.136719 3.371094c27.910157 22.730469 49.171875 50.980469 62.492188 82.148438 10.519531 24.601562 16.089843 51.011718 16.089843 77.941406zm0 0" fill="#00b763"/><path d="m453.730469 219.589844-67.871094 31.660156c-13.03125 6.070312-27.007813 9.109375-41 9.109375-13.980469 0-27.960937-3.039063-40.988281-9.109375l-40.660156-18.96875c-9-4.203125-18.640626-6.292969-28.300782-6.292969s-19.320312 2.089844-28.320312 6.292969l-40.648438 18.96875c-26.050781 12.148438-55.941406 12.148438-81.992187 0l-67.859375-31.660156c13.320312-31.167969 34.582031-59.417969 62.488281-82.148438l4.140625-3.371094h304.382812l4.136719 3.371094c27.910157 22.730469 49.171875 50.980469 62.492188 82.148438zm0 0" fill="#fde790"/><path d="m453.730469 219.589844-67.871094 31.660156c-13.03125 6.070312-27.007813 9.109375-41 9.109375-13.980469 0-27.960937-3.039063-40.988281-9.109375l-40.660156-18.96875c-9-4.203125-18.640626-6.292969-28.300782-6.292969v-91.917969h152.191406l4.136719 3.371094c27.910157 22.730469 49.171875 50.980469 62.492188 82.148438zm0 0" fill="#ffbf72"/></svg>